<!--?xml version="1.0" standalone="no"?-->
              <svg id="sw-js-blob-svg" viewBox="0 0 100 100" xmlns="http://www.w3.org/2000/svg" version="1.1">
                    <defs> 
                        <linearGradient id="sw-gradient" x1="0" x2="1" y1="1" y2="0">
                            <stop id="stop1" stop-color="rgba(1, 193, 255, 1)" offset="0%"></stop>
                            <stop id="stop2" stop-color="rgba(105.919, 152.404, 167.415, 1)" offset="100%"></stop>
                        </linearGradient>
                    </defs>
                <path fill="url(#sw-gradient)" d="M17.1,-27C21.5,-23.9,23.8,-17.9,27.3,-12C30.7,-6,35.3,-0.1,33.8,4.3C32.2,8.7,24.5,11.6,19.1,15.1C13.8,18.5,10.8,22.5,6.1,26.5C1.4,30.6,-5,34.7,-11.9,35.1C-18.7,35.5,-26.1,32.2,-29.8,26.6C-33.6,20.9,-33.8,12.9,-34.2,5.4C-34.6,-2.2,-35.1,-9.2,-32.4,-14.6C-29.6,-19.9,-23.6,-23.6,-17.6,-25.9C-11.7,-28.3,-5.8,-29.3,0.3,-29.8C6.4,-30.2,12.8,-30,17.1,-27Z" width="100%" height="100%" transform="translate(50 50)" stroke-width="0" style="transition: 0.3s;" stroke="url(#sw-gradient)"></path>
              </svg>