<svg id="visual" viewBox="0 0 900 450" width="900" height="450" xmlns="http://www.w3.org/2000/svg" xmlns:xlink="http://www.w3.org/1999/xlink" version="1.1"><rect x="0" y="0" width="900" height="450" fill="#ffffff"></rect><path d="M0 328L129 302L257 292L386 318L514 297L643 300L771 318L900 298L900 451L771 451L643 451L514 451L386 451L257 451L129 451L0 451Z" fill="#44dbcd"></path><path d="M0 312L129 340L257 324L386 346L514 320L643 319L771 337L900 344L900 451L771 451L643 451L514 451L386 451L257 451L129 451L0 451Z" fill="#29cfd7"></path><path d="M0 331L129 329L257 363L386 362L514 348L643 344L771 333L900 364L900 451L771 451L643 451L514 451L386 451L257 451L129 451L0 451Z" fill="#27c3dc"></path><path d="M0 358L129 353L257 349L386 368L514 373L643 364L771 378L900 381L900 451L771 451L643 451L514 451L386 451L257 451L129 451L0 451Z" fill="#2fbedd"></path><path d="M0 386L129 395L257 375L386 383L514 376L643 379L771 398L900 393L900 451L771 451L643 451L514 451L386 451L257 451L129 451L0 451Z" fill="#27c3dc"></path><path d="M0 395L129 399L257 407L386 407L514 407L643 411L771 401L900 411L900 451L771 451L643 451L514 451L386 451L257 451L129 451L0 451Z" fill="#29cfd7"></path><path d="M0 429L129 427L257 415L386 429L514 423L643 423L771 426L900 416L900 451L771 451L643 451L514 451L386 451L257 451L129 451L0 451Z" fill="#44dbcd"></path></svg>