<svg id="visual" viewBox="0 0 1920 1024" width="1920" height="1024" xmlns="http://www.w3.org/2000/svg" xmlns:xlink="http://www.w3.org/1999/xlink" version="1.1"><rect x="0" y="0" width="1920" height="1024" fill="#ffffff"></rect><path d="M0 765L45.7 753.7C91.3 742.3 182.7 719.7 274.2 696.8C365.7 674 457.3 651 548.8 643C640.3 635 731.7 642 823 661.3C914.3 680.7 1005.7 712.3 1097 727.7C1188.3 743 1279.7 742 1371.2 725C1462.7 708 1554.3 675 1645.8 659.5C1737.3 644 1828.7 646 1874.3 647L1920 648L1920 1025L1874.3 1025C1828.7 1025 1737.3 1025 1645.8 1025C1554.3 1025 1462.7 1025 1371.2 1025C1279.7 1025 1188.3 1025 1097 1025C1005.7 1025 914.3 1025 823 1025C731.7 1025 640.3 1025 548.8 1025C457.3 1025 365.7 1025 274.2 1025C182.7 1025 91.3 1025 45.7 1025L0 1025Z" fill="#4facf7"></path><path d="M0 750L45.7 753.7C91.3 757.3 182.7 764.7 274.2 763.2C365.7 761.7 457.3 751.3 548.8 745.8C640.3 740.3 731.7 739.7 823 729.5C914.3 719.3 1005.7 699.7 1097 694C1188.3 688.3 1279.7 696.7 1371.2 710.5C1462.7 724.3 1554.3 743.7 1645.8 752.7C1737.3 761.7 1828.7 760.3 1874.3 759.7L1920 759L1920 1025L1874.3 1025C1828.7 1025 1737.3 1025 1645.8 1025C1554.3 1025 1462.7 1025 1371.2 1025C1279.7 1025 1188.3 1025 1097 1025C1005.7 1025 914.3 1025 823 1025C731.7 1025 640.3 1025 548.8 1025C457.3 1025 365.7 1025 274.2 1025C182.7 1025 91.3 1025 45.7 1025L0 1025Z" fill="#2b9dfc"></path><path d="M0 799L45.7 803.5C91.3 808 182.7 817 274.2 811C365.7 805 457.3 784 548.8 776.8C640.3 769.7 731.7 776.3 823 782.2C914.3 788 1005.7 793 1097 800.5C1188.3 808 1279.7 818 1371.2 829.7C1462.7 841.3 1554.3 854.7 1645.8 855.5C1737.3 856.3 1828.7 844.7 1874.3 838.8L1920 833L1920 1025L1874.3 1025C1828.7 1025 1737.3 1025 1645.8 1025C1554.3 1025 1462.7 1025 1371.2 1025C1279.7 1025 1188.3 1025 1097 1025C1005.7 1025 914.3 1025 823 1025C731.7 1025 640.3 1025 548.8 1025C457.3 1025 365.7 1025 274.2 1025C182.7 1025 91.3 1025 45.7 1025L0 1025Z" fill="#008cff"></path><path d="M0 912L45.7 911.3C91.3 910.7 182.7 909.3 274.2 901.5C365.7 893.7 457.3 879.3 548.8 874.8C640.3 870.3 731.7 875.7 823 881C914.3 886.3 1005.7 891.7 1097 895.3C1188.3 899 1279.7 901 1371.2 890.7C1462.7 880.3 1554.3 857.7 1645.8 846.5C1737.3 835.3 1828.7 835.7 1874.3 835.8L1920 836L1920 1025L1874.3 1025C1828.7 1025 1737.3 1025 1645.8 1025C1554.3 1025 1462.7 1025 1371.2 1025C1279.7 1025 1188.3 1025 1097 1025C1005.7 1025 914.3 1025 823 1025C731.7 1025 640.3 1025 548.8 1025C457.3 1025 365.7 1025 274.2 1025C182.7 1025 91.3 1025 45.7 1025L0 1025Z" fill="#007aff"></path><path d="M0 955L45.7 946.2C91.3 937.3 182.7 919.7 274.2 916C365.7 912.3 457.3 922.7 548.8 926.8C640.3 931 731.7 929 823 929C914.3 929 1005.7 931 1097 936.2C1188.3 941.3 1279.7 949.7 1371.2 943.3C1462.7 937 1554.3 916 1645.8 912.2C1737.3 908.3 1828.7 921.7 1874.3 928.3L1920 935L1920 1025L1874.3 1025C1828.7 1025 1737.3 1025 1645.8 1025C1554.3 1025 1462.7 1025 1371.2 1025C1279.7 1025 1188.3 1025 1097 1025C1005.7 1025 914.3 1025 823 1025C731.7 1025 640.3 1025 548.8 1025C457.3 1025 365.7 1025 274.2 1025C182.7 1025 91.3 1025 45.7 1025L0 1025Z" fill="#0066ff"></path></svg>