<svg id="Layer_1" data-name="Layer 1" xmlns="http://www.w3.org/2000/svg" viewBox="0 0 190.06 164.37"><defs><style>.cls-1{fill:#2faae1;}.cls-2{fill:#1d1d1b;}.cls-3{fill:none;}</style></defs><path class="cls-1" d="M116,78.18a9.22,9.22,0,0,0-6.67-2.6,9.38,9.38,0,0,0-4.34.92,10.84,10.84,0,0,0-3.25,2.68,31.58,31.58,0,0,0-2.67,3.74l-3,4.91L76.33,119.55,56.81,87.83c-1.36-2.24-2.58-4.13-3.63-5.68A75.11,75.11,0,0,0,40.91,99.66l24.46,37.91v33.14q0,6.56,2.92,9.73a10.7,10.7,0,0,0,15.24,0q3-3.21,3-9.69V137.57l26.15-40.11a71.25,71.25,0,0,0,4.63-7.7,12.51,12.51,0,0,0,1.36-5.56A8.21,8.21,0,0,0,116,78.18Zm-72.51-2.6a9.81,9.81,0,0,0-7,2.63,8.35,8.35,0,0,0-2.81,6.27,12.69,12.69,0,0,0,1.39,5.21c.33.71.74,1.51,1.23,2.43A74.31,74.31,0,0,1,46.73,76,11.62,11.62,0,0,0,43.49,75.58Z" transform="translate(-29.97 -42.82)"/><path class="cls-2" d="M198.87,137.11a25,25,0,0,0-7.84-9,48.74,48.74,0,0,0-12.18-6,158,158,0,0,0-16-4.56q-7.07-1.77-10.12-2.71a31.33,31.33,0,0,1-6.06-2.56,14.33,14.33,0,0,1-4.7-3.93,8.73,8.73,0,0,1-1.71-5.41q0-5.06,5-8.65t13.22-3.61q8.83,0,12.83,3.32a27.15,27.15,0,0,1,6.84,9.23,24.47,24.47,0,0,0,4.09,6,7.68,7.68,0,0,0,5.53,1.81,8.54,8.54,0,0,0,6.66-3,10.05,10.05,0,0,0,2.67-6.81A19.23,19.23,0,0,0,195,92.61a26.68,26.68,0,0,0-6.77-8.3A35.14,35.14,0,0,0,176.56,78a51.5,51.5,0,0,0-16.63-2.39,55.77,55.77,0,0,0-21,3.6,29.56,29.56,0,0,0-13.6,10.3,25.94,25.94,0,0,0-4.71,15.32q0,9,4.46,15.14a30.51,30.51,0,0,0,12,9.62A98.19,98.19,0,0,0,156,135.72a137.47,137.47,0,0,1,13.43,3.64,20.37,20.37,0,0,1,8.19,4.95,11.59,11.59,0,0,1,3.18,8.44q0,6.57-5.89,10.94t-15.28,4.39q-6.84,0-11-2.18a17.46,17.46,0,0,1-6.53-5.53,42.84,42.84,0,0,1-4.31-8.33,16.8,16.8,0,0,0-3.95-6.34,8.06,8.06,0,0,0-5.66-2.14,9.26,9.26,0,0,0-9.48,9.34q0,6.61,4.45,13.64a34.08,34.08,0,0,0,11.58,11.23q10.05,5.83,25.51,5.84,12.9,0,22.31-4.28a40.24,40.24,0,0,0,4.08-2.14,30.63,30.63,0,0,0,9.2-8.26l0,0c.35-.46.67-.93,1-1.41a30.66,30.66,0,0,0,4.89-17A28.85,28.85,0,0,0,198.87,137.11Z" transform="translate(-29.97 -42.82)"/><path class="cls-2" d="M213,100c-13.95-28.18-47.26-48-86.13-48-30,0-56.68,11.81-73.7,30.15A38.13,38.13,0,0,0,50.08,78a7.21,7.21,0,0,0-3.35-2C63.56,55.94,91.5,42.82,123.12,42.82,166.1,42.82,202.27,67.05,213,100Z" transform="translate(-29.97 -42.82)"/><path class="cls-2" d="M33.73,129.59A65.44,65.44,0,0,0,37,150a65.91,65.91,0,0,1-.64-57.89c.9,1.63,2.07,3.61,3.51,5.9l1,1.64A66.33,66.33,0,0,0,33.73,129.59Z" transform="translate(-29.97 -42.82)"/><path class="cls-3" d="M53.18,82.15A75.11,75.11,0,0,0,40.91,99.66l-1-1.64c-1.44-2.29-2.61-4.27-3.51-5.9A74.31,74.31,0,0,1,46.73,76a7.21,7.21,0,0,1,3.35,2A38.13,38.13,0,0,1,53.18,82.15Z" transform="translate(-29.97 -42.82)"/><path class="cls-3" d="M216.27,120.41c0,18.35-7.64,35.22-20.45,48.5l0,0a83.63,83.63,0,0,1-9.2,8.26C170,190.11,147.65,198,123.12,198,84.26,198,51,178.18,37,150a65.44,65.44,0,0,1-3.26-20.42,66.33,66.33,0,0,1,7.18-29.93A75.11,75.11,0,0,1,53.18,82.15C70.2,63.81,96.89,52,126.88,52c38.87,0,72.18,19.83,86.13,48A65.32,65.32,0,0,1,216.27,120.41Z" transform="translate(-29.97 -42.82)"/><path class="cls-1" d="M220,129.59c0,42.85-41.71,77.59-93.15,77.59C83.91,207.18,47.75,183,37,150c14,28.17,47.27,48,86.13,48,24.53,0,46.84-7.89,63.48-20.81a30.63,30.63,0,0,0,9.2-8.26l0,0c12.81-13.28,20.45-30.15,20.45-48.5A65.32,65.32,0,0,0,213,100,66.13,66.13,0,0,1,220,129.59Z" transform="translate(-29.97 -42.82)"/><path class="cls-3" d="M216.27,120.41c0,18.35-7.64,35.22-20.45,48.5l0,0a30.63,30.63,0,0,1-9.2,8.26C170,190.11,147.65,198,123.12,198,84.26,198,51,178.18,37,150a65.44,65.44,0,0,1-3.26-20.42,66.33,66.33,0,0,1,7.18-29.93A75.11,75.11,0,0,1,53.18,82.15C70.2,63.81,96.89,52,126.88,52c38.87,0,72.18,19.83,86.13,48A65.32,65.32,0,0,1,216.27,120.41Z" transform="translate(-29.97 -42.82)"/></svg>