<?xml version="1.0" standalone="no"?>
<svg viewBox="0 0 200 200" xmlns="http://www.w3.org/2000/svg">
  <path fill="#17a2ff" d="M36.4,-63.9C43.9,-58.7,44.4,-42.3,51,-29.8C57.6,-17.3,70.2,-8.7,73.8,2.1C77.4,12.8,71.9,25.6,61.5,31.5C51.1,37.5,35.9,36.6,24.8,40.5C13.8,44.4,6.9,53,-0.6,54.1C-8.2,55.3,-16.4,48.9,-26.6,44.5C-36.8,40.2,-49.1,37.8,-54.9,30.7C-60.8,23.6,-60.2,11.8,-60.7,-0.2C-61.1,-12.3,-62.5,-24.6,-60.2,-37.9C-58,-51.3,-52.1,-65.7,-41.5,-69.1C-30.8,-72.6,-15.4,-65.1,-0.5,-64.2C14.4,-63.4,28.9,-69.2,36.4,-63.9Z" transform="translate(100 100)" />
</svg>
